<?xml version="1.0" encoding="UTF-8"?>
<svg viewBox="0 0 640 480" xmlns="http://www.w3.org/2000/svg">
 <path d="m207 259c35.354 24 121-39 121 97l-121-97z" stroke-width="null"/>
 <path d="m288.24 3.6654c-17.266 0.531-39.673 16.404-45.388 33.877-1.567 4.7926-2.851 10.153-2.837 11.892 0.031006 3.7345 3.305 12.82 7.856 21.93 1.792 3.5884 2.922 6.7468 2.509 7.0373-28.727 20.251-45.864 41.306-57.116 70.209-6.832 17.549-8.634 33.244-10.093 87.339-0.979 36.328-0.799 42.777 1.637 48.607 3.092 7.4 3.72 16.042 1.255 17.566-1.591 0.983-12.907-7.621-21.276-16.203-8.552-8.769-23.844-32.597-28.531-44.46-8.555-21.652-11.456-36.718-11.456-59.026 0-11.323 0.699-22.344 1.582-24.549s2.934-8.357 4.528-13.638 4.588-13.136 6.655-17.457c5.001-10.451 22.06-33.004 28.913-38.242 6.421-4.9063 7.093-8.8998 1.528-8.8921-5.24 0.007195-27.613 18.967-39.224 33.223-5.07 6.226-12.656 18.362-16.857 27.004-6.892 14.178-9.074 21.251-15.002 48.333-3.701 16.909-1.9888 45.558 4.4185 73.865 1.304 5.761 2.5 21.472 2.673 34.914 0.223 17.326 0.98901 25.435 2.673 27.876 1.307 1.894 2.401 5.211 2.401 7.365s1.102 6.503 2.455 9.655c1.352 3.153 5.031 12.013 8.183 19.694 10.056 24.508 22.462 40.872 36.113 47.734 11.21 5.634 27.783 8.009 40.424 5.782 13.412-2.362 17.566-5.661 17.566-13.965 0-5.384-1.397-10.992-8.892-36.169-2.469-8.293-2.007-16.475 0.927-16.475 2.8 0 7.965 6.51 7.965 10.038 0 1.247 2.465 7.559 5.51 14.02 3.044 6.461 7.944 16.835 10.856 23.076 7.469 16.008 19.692 36.061 28.04 46.042 6.676 7.983 28.157 23.785 32.35 23.785 1.045 0 3.656 1.075 5.782 2.401 2.127 1.325 7.786 2.887 12.547 3.491 4.762 0.604 9.414 1.886 10.365 2.837 2.575 2.574 9.55 2.152 24.495-1.582 14.994-3.747 21.131-7.116 22.803-12.384 1.095-3.451-1.629-14.773-4.419-18.329-1.685-2.148-7.443-19.641-10.31-31.423-3.334-13.697-4.35-37.639-2.019-47.297 3.965-16.429 7.141-18.217 40.314-22.476 16.553-2.124 23.296-3.496 46.261-9.437 27.227-7.044 59.538-25.673 77.083-44.461 15.417-16.508 19.541-24.68 30.495-60.499 1.36-4.445 2.406-15.434 2.401-25.312-0.008972-16.048-0.47498-18.373-5.565-28.804-10.466-21.45-30.286-40.879-45.66-44.788-5.412-1.376-19.49 5.3-26.568 12.602-4.904 5.06-5.414 6.526-4.637 13.256 0.482 4.168 2.549 13.082 4.583 19.803 9.297 30.726 12.922 63.66 8.237 74.682-4.537 10.675-28.967 30.932-37.314 30.932-1.774 0-4.157 0.93903-5.291 2.073-1.774 1.773-10.934 3.552-28.313 5.564-8.635 1-13.165 3.426-18.766 9.929-8.031 9.324-12.735 9.806-29.186 3.164-12.535-5.061-14.42-5.365-21.712-3.655-17.397 4.079-16.663 4.13-22.258-1.855-2.895-3.097-7.073-8.645-9.274-12.329-5.233-8.76-10.364-13.365-14.783-13.365-6.126 0-24.427-10.208-34.641-19.312-10.911-9.725-18.246-21.378-24.113-38.296-5.667-16.343-5.641-49.085 0.055008-68.9 4.253-14.797 15.612-38.161 23.621-48.661 4.71-6.1749 10.066-8.2109 12.275-4.637 2.385 3.8593 11.063 1.6197 19.42-5.0188 4.686-3.7222 15.188-10.448 23.349-14.948 8.161-4.4991 15.536-8.8926 16.42-9.7649 3.524-3.4751 1.281-18.692-4.528-30.604-6.379-13.083-14.615-20.418-26.512-23.621-2.195-0.591-4.516-0.8396-6.983-0.76376zm178.99 25.312c-5.614 0.1825-10.925 1.2416-14.402 3.1095-16.912 9.0841 14.277 63.829-22.094 44.406s6.714 5.5452 12.22 9.0012c5.506 3.4561 14.756 11.12 20.566 17.02l10.529 10.747 9.055-0.873c8.179-0.786 9.848-1.736 17.13-9.656 8.423-9.1598 15.602-22.237 15.602-28.422 0-13.773-14.523-35.1-28.476-41.842-4.609-2.2268-11.243-3.4219-17.73-3.4914-0.81097-0.008699-1.598-0.0261-2.4 0zm-158.58 128.04c-16.947 0.621-36.434 18.85-38.46 41.188-1.143 12.602 3.876 24.816 12.383 30.004 8.712 5.312 16.979 4.338 25.804-3.001 4.171-3.469 8.285-7.593 9.165-9.165s5.111-6.967 9.383-12.001c7.76-9.146 7.746-9.165 6.492-19.203-1.417-11.335-3.92-17.092-9.874-22.53-3.823-3.492-8.412-5.139-13.257-5.292-0.53998-0.016998-1.09-0.020004-1.636 0zm104.74 13.693c-7.744 0.14-14.43 5.554-20.894 16.584-5.887 10.045-4.971 17.618 4.528 37.423 7.78 16.221 9.48 18.689 15.766 23.021 5.64 3.888 11.545 3.569 20.075-1.091 10.474-5.721 14.851-14.771 14.839-30.822-0.014984-19.988-7.838-34.25-23.022-42.06-4.041-2.079-7.772-3.119-11.292-3.055zm-107.47 6.71c3.157 0 5.728 3.6 5.728 8.019s-2.571 8.019-5.728 8.019-5.728-3.599-5.728-8.019c0-4.419 2.571-8.019 5.728-8.019zm110.96 12.602c3.156 0 5.728 3.545 5.728 7.964 0 4.42-2.572 8.02-5.728 8.02s-5.728-3.6-5.728-8.02 2.572-7.964 5.728-7.964zm-79.374 67.863c-5.751 0.16699-10.35 1.036-12.22 2.728-5.68 5.141-3.96 8.883 6.438 13.802 5.314 2.514 10.921 6.468 12.438 8.783 1.516 2.314 3.048 4.2 3.436 4.2 0.38901 0 3.835-1.964 7.638-4.364 3.802-2.4 8.526-4.364 10.528-4.364 8.726 0 14.11-8.824 8.238-13.529-5.792-4.642-23.843-7.622-36.496-7.256zm-10.583 45.934c0.47101-0.015991 0.991-0.016998 1.527 0 2.86 0.091003 6.62 0.69 11.293 1.745 6.836 1.544 15.82 2.783 19.966 2.783 9.556 0 11.414 2.862 5.292 8.128-4.047 3.48-6.637 4.091-17.675 4.091-11.979 0-13.379-0.38303-19.094-5.4-8.14-7.147-8.381-11.106-1.309-11.347z"/>
 <circle cx="300" cy="190" r="23.854" stroke-width="null"/>
 <ellipse cx="357.5" cy="299.5" rx="34.5" ry="10.5" fill="none" stroke="#fff" stroke-width="5"/>
 <g stroke-width="null">
  <path d="m513.28 288.46c56.283 17.65-143.28-51.479-143.28 48.537l143.28-48.537z"/>
  <ellipse cx="303" cy="184" rx="6" ry="9" fill="#fff" stroke=""/>
 </g>
</svg>
